<svg width="25" height="23" viewBox="0 0 25 23" fill="none" xmlns="http://www.w3.org/2000/svg">
<path d="M22.5586 5.3457C23.5017 6.76623 24.1204 8.36972 24.3724 10.0464C24.6243 11.723 24.5035 13.4332 24.0182 15.0598C23.533 16.6864 22.6947 18.1911 21.5609 19.4707C20.427 20.7504 19.0244 21.7748 17.4489 22.4738C18.0159 21.621 18.5096 20.7234 18.9249 19.7904C19.3603 18.8029 19.8121 16.5918 18.6894 14.0211C17.4489 14.0614 15.8771 14.5122 14.1575 15.6526C13.1197 16.3423 11.1892 17.4076 9.95965 21.0758C9.4695 22.5409 9.13816 23.0105 8.8123 22.8951C8.34953 22.7368 7.89223 21.4219 6.99132 20.1124C5.49347 17.9362 4.14622 17.6088 4.14622 17.6088C4.11676 18.6833 4.32411 19.7515 4.75412 20.7403C2.5787 18.9418 1.12831 16.4427 0.663086 13.6911C2.30607 13.6589 4.2448 14.1902 6.29853 16.7743C8.58502 19.6562 8.98208 20.9657 10.0664 16.6482C11.1508 12.3306 13.2292 9.80014 15.5732 7.92176C17.8296 6.11852 21.0279 5.54427 22.5586 5.3457Z" fill="white"/>
<path d="M12.4993 9.12862e-06C14.2672 -0.00215241 16.0136 0.379578 17.613 1.11777C19.2124 1.85596 20.625 2.93227 21.7493 4.26929C19.2109 4.80597 18.3182 4.99112 15.6264 6.32745C12.5869 7.8382 10.462 11.4393 9.47619 13.1325C8.4904 14.8258 7.16779 15.0646 4.97988 13.8839C2.79197 12.7032 2.00333 12.6522 0.521907 12.4644C0.521907 12.2309 0.5 11.9948 0.5 11.7586C0.5 8.64005 1.76421 5.6492 4.01451 3.44403C6.26481 1.23886 9.31688 9.12862e-06 12.4993 9.12862e-06ZM9.59667 8.83643C9.59721 8.30176 9.43588 7.77895 9.13309 7.33417C8.83031 6.88938 8.39968 6.54262 7.8957 6.33777C7.39173 6.13292 6.83706 6.07918 6.30191 6.18336C5.76675 6.28753 5.27517 6.54495 4.88936 6.92302C4.50356 7.30109 4.24087 7.78281 4.13456 8.30723C4.02825 8.83165 4.08309 9.37519 4.29214 9.86906C4.50119 10.3629 4.85504 10.7849 5.30893 11.0816C5.76281 11.3784 6.29632 11.5365 6.84193 11.5359C7.57253 11.5359 8.27321 11.2515 8.78983 10.7453C9.30644 10.239 9.59667 9.55238 9.59667 8.83643Z" fill="white"/>
<path d="M16.9338 16.3394C17.0963 16.3394 17.2551 16.3866 17.3902 16.475C17.5253 16.5635 17.6306 16.6892 17.6928 16.8363C17.7549 16.9834 17.7712 17.1453 17.7395 17.3014C17.7078 17.4576 17.6296 17.601 17.5147 17.7136C17.3998 17.8262 17.2534 17.9029 17.0941 17.9339C16.9347 17.965 16.7695 17.949 16.6194 17.8881C16.4693 17.8272 16.341 17.724 16.2507 17.5916C16.1605 17.4592 16.1123 17.3036 16.1123 17.1444C16.1123 16.9309 16.1989 16.7261 16.3529 16.5751C16.507 16.4242 16.7159 16.3394 16.9338 16.3394Z" fill="white"/>
</svg>
