<svg width="58" height="56" viewBox="0 0 58 56" fill="none" xmlns="http://www.w3.org/2000/svg">
<path d="M52.9595 12.8359C55.2238 16.2465 56.7092 20.0963 57.3141 24.1217C57.9189 28.1471 57.6289 32.2531 56.4638 36.1584C55.2988 40.0638 53.2862 43.6763 50.564 46.7486C47.8417 49.8209 44.4741 52.2804 40.6917 53.9587C42.053 51.9111 43.2383 49.7562 44.2353 47.5162C45.2806 45.1453 46.3654 39.8367 43.6699 33.6647C40.6917 33.7613 36.918 34.8437 32.7892 37.5818C30.2975 39.2375 25.6626 41.7952 22.7107 50.6021C21.5339 54.1198 20.7384 55.2472 19.956 54.9702C18.845 54.5901 17.747 51.4332 15.5841 48.2893C11.9879 43.0644 8.75326 42.2784 8.75326 42.2784C8.68253 44.8582 9.18035 47.4226 10.2128 49.7968C4.98982 45.4788 1.50759 39.4786 0.390625 32.8723C4.33526 32.7949 8.98993 34.0706 13.9207 40.2747C19.4104 47.194 20.3636 50.338 22.9671 39.9719C25.5706 29.6059 30.5605 23.5306 36.1882 19.0208C41.6055 14.6914 49.2844 13.3127 52.9595 12.8359Z" fill="#181818"/>
<path d="M28.809 2.19168e-05C33.0536 -0.0051677 37.2466 0.911327 41.0866 2.68364C44.9265 4.45596 48.3181 7.04006 51.0173 10.2501C44.9228 11.5386 42.7796 11.9831 36.317 15.1915C29.0194 18.8187 23.9177 27.4646 21.5509 31.5298C19.1841 35.5951 16.0087 36.1685 10.7557 33.3337C5.50277 30.499 3.60934 30.3766 0.0525964 29.9256C0.0525964 29.3651 0 28.7982 0 28.2312C0 20.7439 3.03523 13.5631 8.43796 8.26875C13.8407 2.97436 21.1684 2.19168e-05 28.809 2.19168e-05V2.19168e-05ZM21.8401 21.2153C21.8414 19.9316 21.4541 18.6764 20.7271 17.6086C20.0002 16.5407 18.9663 15.7081 17.7563 15.2163C16.5463 14.7245 15.2146 14.5955 13.9298 14.8456C12.6449 15.0957 11.4647 15.7137 10.5384 16.6214C9.61211 17.5291 8.98144 18.6857 8.7262 19.9448C8.47096 21.2039 8.60262 22.5088 9.10452 23.6946C9.60642 24.8803 10.456 25.8935 11.5457 26.6058C12.6355 27.3182 13.9163 27.6978 15.2263 27.6965C16.9804 27.6965 18.6627 27.0137 19.903 25.7982C21.1433 24.5828 21.8401 22.9342 21.8401 21.2153V21.2153Z" fill="#181818"/>
<path d="M39.4586 39.2285C39.8487 39.2285 40.2301 39.3419 40.5544 39.5542C40.8788 39.7666 41.1315 40.0685 41.2808 40.4216C41.4301 40.7748 41.4692 41.1634 41.3931 41.5383C41.317 41.9133 41.1291 42.2577 40.8533 42.528C40.5775 42.7983 40.226 42.9823 39.8434 43.0569C39.4608 43.1315 39.0643 43.0932 38.7039 42.9469C38.3435 42.8006 38.0354 42.5529 37.8187 42.2351C37.602 41.9172 37.4863 41.5435 37.4863 41.1613C37.4863 40.6487 37.6941 40.1571 38.064 39.7946C38.4339 39.4322 38.9356 39.2285 39.4586 39.2285Z" fill="#181818"/>
</svg>
