<svg width="104" height="38" fill="none" xmlns="http://www.w3.org/2000/svg"><g clip-path="url(#a)"><path d="M103.293 32.948v1.084h-4.184v-7.27h4.081v1.083h-2.882v1.87h2.441v1.079h-2.441v2.154h2.985z" fill="#F4F4F4"/><path d="m101.072 8.945 1.929 3.892h-1.608l-1.729-3.642h-1.22v3.642h-1.43V3.514h2.717c1.662 0 2.949.688 2.949 2.768 0 1.404-.646 2.281-1.608 2.663zm.21-2.663c0-1.07-.611-1.448-1.707-1.448h-1.131v3.04h1.131c1.096 0 1.707-.53 1.707-1.592zM100.021 15.18c2.147 0 3.479 1.785 3.479 4.65s-1.363 4.721-3.479 4.721-3.484-1.856-3.484-4.72c0-2.866 1.332-4.651 3.484-4.651zm1.907 4.65c0-1.926-.735-3.128-1.907-3.128-1.172 0-1.92 1.202-1.92 3.128 0 1.926.753 3.199 1.92 3.199 1.167 0 1.907-1.26 1.907-3.199z" fill="#fff"/><path d="M97.87 31.904c0 1.448-1.118 2.128-2.606 2.128h-2.348v-7.27h2.17c1.398 0 2.419.438 2.419 1.785.02.327-.06.652-.228.934a1.666 1.666 0 0 1-.717.65v.044c.394.083.744.304.985.622s.356.711.325 1.107zm-1.185-.075c0-.759-.535-1.105-1.555-1.105h-1.002v2.307h1.007c.993 0 1.55-.381 1.55-1.215v.013zm-.356-3.071c0-.702-.446-.974-1.337-.974h-.89v2h.85c.958-.021 1.377-.416 1.377-1.04v.014z" fill="#F4F4F4"/><path d="m95.055 22.243.784 1.084a2.91 2.91 0 0 1-1.044.9 2.96 2.96 0 0 1-1.348.324c-2.174 0-3.564-1.82-3.564-4.624 0-3.26 1.884-4.747 3.626-4.747.427.013.847.115 1.23.3.385.184.725.447.998.77l-.789 1.119c-.17-.2-.382-.363-.62-.478-.24-.115-.5-.18-.765-.189-1.23 0-2.094 1.294-2.094 3.15 0 1.953.784 3.177 2.058 3.177a2.027 2.027 0 0 0 1.528-.786zM91.86 3.348c2.094 0 3.564 1.78 3.564 4.79s-1.453 4.88-3.564 4.88c-2.112 0-3.524-1.857-3.524-4.893 0-3.036 1.439-4.777 3.524-4.777zm0 8.23c1.265 0 2.085-1.347 2.085-3.44 0-2.092-.82-3.351-2.085-3.351-1.265 0-2.072 1.259-2.072 3.352 0 2.092.807 3.44 2.072 3.44z" fill="#fff"/><path d="M91.198 26.762H89.99v7.265h1.208v-7.265zM87.273 30.995l1.63 3.037h-1.336l-1.457-2.843h-1.034v2.843H83.87v-7.27h2.294c1.408 0 2.495.535 2.495 2.154.037.449-.08.897-.33 1.274-.251.376-.623.66-1.055.805zm.178-2.08c0-.833-.512-1.127-1.444-1.127h-.953v2.365h.953c.932 0 1.44-.403 1.44-1.237h.004z" fill="#F4F4F4"/><path d="M88.093 15.36h-1.529v9.015h1.529V15.36zM87.13 8.125c0 3.093-1.453 4.712-3.836 4.712h-2.228V3.514h2.139c2.459 0 3.925 1.54 3.925 4.61zm-1.466 0c0-2.295-.931-3.282-2.54-3.282h-.627v6.66h.628c1.608 0 2.539-1.07 2.539-3.378z" fill="#fff"/><path d="m80.866 26.762 2.227 7.27H81.82l-.521-1.966h-2.272l-.535 1.965h-1.23l2.228-7.27h1.377zm.133 4.282-.236-.878c-.209-.772-.41-1.605-.61-2.404h-.04a79.104 79.104 0 0 1-.602 2.404l-.231.878H81z" fill="#F4F4F4"/><path d="M79.423 11.446v1.39h-3.627l-1.01-1.508-.317.258V3.514h4.834v1.39H75.89v2.392h2.891v1.39H75.89v2.76h3.533z" fill="#fff"/><path d="m76.344 32.309.641.807c-.244.33-.565.598-.935.782-.37.184-.78.278-1.194.276-1.707 0-3.061-1.343-3.061-3.747s1.385-3.804 3.118-3.804c.374.006.743.092 1.08.251.337.16.634.39.872.675l-.642.833a1.703 1.703 0 0 0-1.288-.632c-1.095 0-1.893 1-1.893 2.633 0 1.632.731 2.663 1.871 2.663.28-.01.553-.081.8-.209.248-.127.463-.308.63-.528z" fill="#F4F4F4"/><path d="M73.493 15.18c2.152 0 3.493 1.785 3.493 4.65s-1.377 4.721-3.493 4.721c-2.116 0-3.48-1.856-3.48-4.72 0-2.866 1.342-4.651 3.48-4.651zm1.916 4.65c0-1.926-.73-3.128-1.916-3.128-1.185 0-1.907 1.202-1.907 3.128 0 1.926.753 3.199 1.907 3.199s1.925-1.26 1.925-3.199h-.01zM74.646 11.969l.775 1.092-2.027 1.536-.632-.834 1.884-1.794zM71.242 8.945l1.93 3.892h-1.596l-1.732-3.642h-1.217v3.642h-1.43V3.514h2.704c1.675 0 2.959.688 2.959 2.768 0 1.404-.642 2.281-1.618 2.663zm.21-2.663c0-1.07-.597-1.448-1.698-1.448h-1.127v3.04h1.127c1.1 0 1.698-.53 1.698-1.592zM69.17 22.91v1.46h-4.668v-9.01h1.52v7.55h3.149z" fill="#fff"/><path d="M68.89 32.948v1.084h-4.023v-7.27h1.207v6.186h2.816z" fill="#F4F4F4"/><path d="m63.98 8.936 1.93 3.9h-1.608l-1.716-3.64h-1.234v3.64h-1.416V3.515h2.704c1.662 0 2.949.688 2.949 2.768 0 1.404-.642 2.281-1.608 2.654zm.21-2.654c0-1.07-.597-1.448-1.706-1.448h-1.132v3.04h1.145c1.096 0 1.693-.53 1.693-1.592z" fill="#fff"/><path d="M63.472 32.948v1.084h-4.179v-7.27h4.076v1.083h-2.882v1.87h2.441v1.079h-2.441v2.154h2.985z" fill="#F4F4F4"/><path d="M59.237 15.18c2.152 0 3.48 1.785 3.48 4.65s-1.364 4.721-3.48 4.721c-2.116 0-3.48-1.856-3.48-4.72 0-2.866 1.328-4.651 3.48-4.651zm1.907 4.65c0-1.926-.73-3.128-1.907-3.128-1.176 0-1.916 1.202-1.916 3.128 0 1.926.753 3.199 1.916 3.199 1.163 0 1.925-1.26 1.925-3.199h-.018zM54.78 3.348c2.086 0 3.538 1.78 3.538 4.79s-1.452 4.88-3.537 4.88-3.564-1.857-3.564-4.88c0-3.022 1.479-4.79 3.564-4.79zm0 8.23c1.253 0 2.072-1.347 2.072-3.44 0-2.092-.82-3.351-2.071-3.351-1.252 0-2.085 1.259-2.085 3.338 0 2.08.82 3.453 2.085 3.453z" fill="#fff"/><path d="M55.49 26.762v7.27h-1.242l-2.103-4.094-.7-1.544h-.044c.054.772.156 1.64.156 2.461v3.177h-1.145v-7.27h1.234l2.103 4.093.713 1.544h.017c-.053-.745-.155-1.675-.155-2.483v-3.154h1.167z" fill="#F4F4F4"/><path d="M53.97 15.36h-1.519v9.015h1.52V15.36zM49.956 10.613l.758 1.049a3.008 3.008 0 0 1-1.091.993 3.062 3.062 0 0 1-1.44.362c-2.018 0-3.613-1.715-3.613-4.826 0-3.11 1.64-4.86 3.671-4.86.451.011.894.123 1.295.327.4.203.75.493 1.022.848l-.758 1.07a1.996 1.996 0 0 0-.67-.574 2.028 2.028 0 0 0-.858-.233c-1.31 0-2.227 1.281-2.227 3.378 0 2.098.89 3.414 2.227 3.414.337-.017.665-.112.957-.277.293-.164.542-.394.727-.671zM50.834 21.782c0 1.628-1.11 2.593-2.972 2.593h-2.815V15.36h2.593c1.884 0 2.793.702 2.793 2.163 0 .834-.397 1.628-.962 1.87l-.08.034v.272l.102.035c.499.145 1.34.62 1.34 2.05zm-3.119 1.273c1.337 0 1.627-.764 1.627-1.404 0-.878-.53-1.316-1.627-1.316H46.57v2.707l1.145.013zm-.169-3.949c1.22 0 1.399-.798 1.399-1.259 0-1.035-.788-1.154-1.386-1.154h-.988v2.4l.975.013z" fill="#fff"/><path d="M49.016 32.948v1.084h-4.192v-7.27h4.081v1.083h-2.873v1.87h2.44v1.079h-2.44v2.154h2.984z" fill="#F4F4F4"/><path d="M84.643 19.427v4.08c-.32.334-.708.598-1.137.778-.43.18-.891.27-1.358.267-2.316 0-3.755-1.755-3.755-4.625 0-2.869 1.528-4.734 3.733-4.734.446-.001.886.094 1.29.279a3.03 3.03 0 0 1 1.049.792l-.784 1.105a1.999 1.999 0 0 0-1.488-.654c-1.337 0-2.228 1.26-2.228 3.138 0 2.049.842 3.176 2.384 3.176.337.009.667-.1.93-.307l.054-.048v-1.825h-1.336v-1.426l2.646.004z" fill="#fff"/><path d="M36.386 8.74a19.054 19.054 0 0 1 2.95 7.686 18.95 18.95 0 0 1-.575 8.197 19.143 19.143 0 0 1-3.998 7.211 19.506 19.506 0 0 1-6.69 4.91 29.887 29.887 0 0 0 2.401-4.387c.709-1.614 1.444-5.23-.383-9.433-2.018.066-4.575.803-7.373 2.668-1.689 1.128-4.83 2.87-6.83 8.867-.797 2.395-1.336 3.163-1.866 2.974-.753-.259-1.497-2.408-2.963-4.55C8.622 29.326 6.43 28.79 6.43 28.79c-.047 1.757.29 3.504.99 5.12A19.115 19.115 0 0 1 .763 22.385c2.673-.053 5.827.816 9.168 5.04 3.72 4.713 4.366 6.854 6.13-.205 1.764-7.06 5.146-11.197 8.96-14.268 3.67-2.948 8.874-3.887 11.364-4.212z" fill="#F4F4F4"/><path d="M20.022 0a19.72 19.72 0 0 1 8.32 1.828A19.432 19.432 0 0 1 35.07 6.98c-4.13.878-5.582 1.18-9.961 3.365-4.946 2.47-8.403 8.358-10.006 11.127C13.5 24.24 11.348 24.63 7.788 22.7S2.946 20.686.536 20.38c0-.383-.036-.769-.036-1.155 0-5.099 2.057-9.989 5.718-13.594C9.878 2.026 14.844 0 20.022 0zM15.3 14.447c0-.874-.262-1.728-.755-2.456a4.473 4.473 0 0 0-2.013-1.629 4.55 4.55 0 0 0-2.593-.252c-.87.17-1.67.59-2.298 1.21a4.397 4.397 0 0 0-1.228 2.262 4.356 4.356 0 0 0 .257 2.554c.34.807.915 1.497 1.654 1.982a4.536 4.536 0 0 0 2.494.743 4.517 4.517 0 0 0 3.169-1.293 4.38 4.38 0 0 0 1.313-3.12zM27.239 26.715c.264 0 .523.077.742.222a1.298 1.298 0 0 1 .203 2.025 1.355 1.355 0 0 1-1.457.285 1.332 1.332 0 0 1-.6-.485 1.302 1.302 0 0 1 .167-1.662c.25-.247.59-.385.945-.385z" fill="#fff"/></g><defs><clipPath id="a"><path fill="#fff" transform="translate(.5)" d="M0 0h103v37.455H0z"/></clipPath></defs></svg>